<svg xmlns="http://www.w3.org/2000/svg" viewBox="0 0 256 256" role="img" aria-labelledby="title desc">
  <title id="title">PasteSync icon</title>
  <desc id="desc">A bold PasteSync P monogram with a small sync mark.</desc>
  <defs>
    <linearGradient id="bg" x1="36" y1="22" x2="220" y2="236" gradientUnits="userSpaceOnUse">
      <stop offset="0" stop-color="#fff7e9"/>
      <stop offset="1" stop-color="#d8bd8b"/>
    </linearGradient>
    <filter id="shadow" x="-20%" y="-20%" width="140%" height="140%">
      <feDropShadow dx="0" dy="10" stdDeviation="12" flood-color="#4e3a22" flood-opacity="0.18"/>
    </filter>
  </defs>
  <rect width="256" height="256" rx="56" fill="url(#bg)"/>
  <circle cx="63" cy="61" r="36" fill="#ffffff" opacity="0.32"/>
  <circle cx="208" cy="205" r="54" fill="#b8893d" opacity="0.14"/>
  <g filter="url(#shadow)">
    <path fill="#221d18" fill-rule="evenodd" d="M72 55H145C181 55 204 78 204 113C204 148 181 171 145 171H113V198H72V55ZM113 93V134H142C156 134 164 126 164 113C164 101 156 93 142 93H113Z"/>
  </g>
  <path d="M79 211 C108 224 154 224 183 211" fill="none" stroke="#1b9b98" stroke-width="13" stroke-linecap="round"/>
  <circle cx="79" cy="211" r="8" fill="#1b9b98"/>
  <circle cx="183" cy="211" r="8" fill="#1b9b98"/>
</svg>
